<svg width="40" height="40" viewBox="0 0 40 40" fill="none" xmlns="http://www.w3.org/2000/svg">
<g id="Fether Icons /award" clip-path="url(#clip0_172_4005)">
<path id="Vector (Stroke)" fill-rule="evenodd" clip-rule="evenodd" d="M19.9974 3.33333C14.4745 3.33333 9.9974 7.81049 9.9974 13.3333C9.9974 18.8562 14.4745 23.3333 19.9974 23.3333C25.5202 23.3333 29.9974 18.8562 29.9974 13.3333C29.9974 7.81049 25.5202 3.33333 19.9974 3.33333ZM6.66406 13.3333C6.66406 5.96954 12.6336 0 19.9974 0C27.3612 0 33.3307 5.96954 33.3307 13.3333C33.3307 20.6971 27.3612 26.6667 19.9974 26.6667C12.6336 26.6667 6.66406 20.6971 6.66406 13.3333Z" fill="#875A33"/>
<path id="Vector (Stroke)_2" fill-rule="evenodd" clip-rule="evenodd" d="M26.0975 21.4815C27.01 21.3604 27.8478 22.002 27.9689 22.9145L29.9856 38.1144C30.0697 38.7488 29.7832 39.3754 29.2483 39.7267C28.7134 40.078 28.0246 40.0921 27.4759 39.7628L20 35.2773L12.5242 39.7628C11.9754 40.0921 11.2865 40.078 10.7516 39.7266C10.2167 39.3753 9.93029 38.7486 10.0145 38.1142L12.0312 22.9309C12.1524 22.0184 12.9904 21.377 13.9028 21.4982C14.8153 21.6194 15.4567 22.4573 15.3355 23.3698L13.7741 35.1256L19.1425 31.9045C19.6704 31.5878 20.3297 31.5878 20.8575 31.9045L26.2265 35.1259L24.6645 23.3529C24.5435 22.4404 25.185 21.6025 26.0975 21.4815Z" fill="#875A33"/>
</g>
<defs>
<clipPath id="clip0_172_4005">
<rect width="40" height="40" fill="white"/>
</clipPath>
</defs>
</svg>
